<?xml version="1.0" encoding="utf-8"?>
<!-- Generator: Adobe Illustrator 19.0.0, SVG Export Plug-In . SVG Version: 6.00 Build 0)  -->
<svg version="1.1" id="Layer_1" xmlns="http://www.w3.org/2000/svg" xmlns:xlink="http://www.w3.org/1999/xlink" x="0px" y="0px"
	 viewBox="-469.3 85.3 32 32" style="enable-background:new -469.3 85.3 32 32;" xml:space="preserve">
<style type="text/css">
	.st0{display:none;}
	.st1{display:inline;fill:#EFF1F5;}
	.st2{fill:none;stroke:#343D46;stroke-linecap:round;stroke-linejoin:round;stroke-miterlimit:10;}
</style>
<g id="Layer_2" class="st0">
	<rect x="-476" y="78.6" class="st1" width="45.4" height="45.4"/>
</g>
<g id="_x30_">
	<g id="LINE_7_">
		<line class="st2" x1="-450.8" y1="98.1" x2="-455.8" y2="104.4"/>
	</g>
	<g id="ARC_8_">
		<path class="st2" d="M-455.8,98.1c-1.7-2.1-4.8-2.5-7-0.7c-2.2,1.8-2.5,4.8-0.7,7c1.8,2.2,4.8,2.5,7,0.7c0.3-0.2,0.5-0.5,0.7-0.7"
			/>
	</g>
	<g id="ARC_9_">
		<path class="st2" d="M-450.8,104.4c1.7,2.1,4.8,2.5,7,0.7c2.2-1.8,2.5-4.8,0.7-7c-1.7-2.1-4.8-2.5-7-0.7c-0.3,0.2-0.5,0.5-0.7,0.7
			"/>
	</g>
</g>
</svg>
