<?xml version="1.0" encoding="utf-8"?>
<!-- Generator: Adobe Illustrator 21.0.0, SVG Export Plug-In . SVG Version: 6.00 Build 0)  -->
<svg version="1.1" id="Layer_1" xmlns="http://www.w3.org/2000/svg" xmlns:xlink="http://www.w3.org/1999/xlink" x="0px" y="0px"
	 viewBox="0 0 128 128" style="enable-background:new 0 0 128 128;" xml:space="preserve">
<style type="text/css">
	.st0{fill:none;stroke:#C0C5CE;stroke-width:5;stroke-linecap:round;stroke-linejoin:round;stroke-miterlimit:10;}
</style>
<g>
	<g id="LINE_5_">
		<line class="st0" x1="71.2" y1="52.7" x2="57.3" y2="75.9"/>
	</g>
	<g id="ARC_3_">
		<path class="st0" d="M53.2,47.7c-9.2-8.4-23.4-7.8-31.8,1.4s-7.8,23.4,1.4,31.8s23.4,7.8,31.8-1.4c1-1.1,1.9-2.3,2.7-3.6"/>
	</g>
	<g id="ARC_2_">
		<path class="st0" d="M75.3,80.9c9.2,8.4,23.4,7.8,31.8-1.4s7.8-23.4-1.4-31.8S82.4,39.9,74,49.1c-1,1.1-1.9,2.3-2.7,3.6"/>
	</g>
	<g id="LWPOLYLINE_1_">
		<path class="st0" d="M109.5,4.5H25.7L4.5,25.7v83.8c0,8.3,6.7,15,15,15h90c8.3,0,15-6.7,15-15v-90C124.5,11.2,117.8,4.5,109.5,4.5
			z"/>
	</g>
</g>
</svg>
