<?xml version="1.0" encoding="utf-8"?>
<!-- Generator: Adobe Illustrator 23.0.2, SVG Export Plug-In . SVG Version: 6.00 Build 0)  -->
<svg version="1.1" id="_x30_" xmlns="http://www.w3.org/2000/svg" xmlns:xlink="http://www.w3.org/1999/xlink" x="0px" y="0px"
	 viewBox="0 0 612 792" style="enable-background:new 0 0 612 792;" xml:space="preserve">
<style type="text/css">
	.st0{fill:#A7ADBA;stroke:#A7ADBA;stroke-width:3;stroke-linecap:round;stroke-linejoin:round;stroke-miterlimit:10;}
	.st1{fill:none;stroke:#2B303B;stroke-width:3;stroke-linecap:round;stroke-linejoin:round;stroke-miterlimit:10;}
	.st2{fill:none;}
	.st3{fill:#A7ADBA;}
	.st4{font-family:'GothamRounded-Light';}
	.st5{font-size:78px;}
</style>
<g id="ARC_4_">
	<path class="st0" d="M79,443.4c8.7,0,15.8-7.1,15.8-15.8v-63.1c0-8.7-7.1-15.8-15.8-15.8H15.9L0.1,364.4v63.1
		c0,8.7,7.1,15.8,15.8,15.8L79,443.4L79,443.4z"/>
</g>
<g id="ARC_1_">
	<path class="st1" d="M36.5,382.9c-7.3-4.8-17-2.9-21.9,4.4s-2.9,17,4.4,21.9c7,4.6,16.4,3,21.4-3.7l14.2-18.9
		c5-6.7,14.4-8.3,21.4-3.7c7.3,4.8,9.2,14.6,4.4,21.9c-4.8,7.3-14.6,9.2-21.9,4.4"/>
</g>
<g id="LWPOLYLINE">
	<rect x="110.6" y="361.4" class="st2" width="501.3" height="78.9"/>
	<text transform="matrix(1 0 0 1 110.6016 418.6537)" class="st3 st4 st5">thnikk</text>
</g>
</svg>
