<?xml version="1.0" encoding="utf-8"?>
<!-- Generator: Adobe Illustrator 19.0.0, SVG Export Plug-In . SVG Version: 6.00 Build 0)  -->
<svg version="1.1" xmlns="http://www.w3.org/2000/svg" xmlns:xlink="http://www.w3.org/1999/xlink" x="0px" y="0px"
	 viewBox="0 0 45.4 45.4" style="enable-background:new 0 0 45.4 45.4;" xml:space="preserve">
<style type="text/css">
	.st0{display:none;}
	.st1{display:inline;fill:#EFF1F5;}
	.st2{fill:none;stroke:#EFF1F5;stroke-width:2;stroke-linecap:round;stroke-linejoin:round;stroke-miterlimit:10;}
</style>
<g id="Layer_2" class="st0">
	<rect class="st1" width="45.4" height="45.4"/>
</g>
<g id="_x30_">
	<g id="LINE">
		<line class="st2" x1="9.1" y1="25.8" x2="9.1" y2="4"/>
	</g>
	<g id="LINE_1_">
		<line class="st2" x1="36.3" y1="4" x2="36.3" y2="25.8"/>
	</g>
	<g id="ARC">
		<path class="st2" d="M11.9,1.1c-1.6,0-2.8,1.3-2.8,2.8"/>
	</g>
	<g id="ARC_1_">
		<path class="st2" d="M36.3,4c0-1.6-1.3-2.8-2.8-2.8"/>
	</g>
	<g id="ARC_2_">
		<path class="st2" d="M33.5,28.6c1.6,0,2.8-1.3,2.8-2.8"/>
	</g>
	<g id="ARC_3_">
		<path class="st2" d="M9.1,25.8c0,1.6,1.3,2.8,2.8,2.8"/>
	</g>
	<g id="LINE_2_">
		<line class="st2" x1="39.7" y1="44.2" x2="5.7" y2="44.2"/>
	</g>
	<g id="LINE_3_">
		<line class="st2" x1="2.8" y1="41.4" x2="2.8" y2="10.2"/>
	</g>
	<g id="LINE_4_">
		<line class="st2" x1="42.5" y1="10.2" x2="42.5" y2="41.4"/>
	</g>
	<g id="ARC_4_">
		<path class="st2" d="M42.5,10.2c0-0.8-0.3-1.5-0.8-2"/>
	</g>
	<g id="ARC_5_">
		<path class="st2" d="M3.7,8.2c-0.5,0.5-0.8,1.3-0.8,2"/>
	</g>
	<g id="ARC_6_">
		<path class="st2" d="M2.8,41.4c0,1.6,1.3,2.8,2.8,2.8"/>
	</g>
	<g id="ARC_7_">
		<path class="st2" d="M39.7,44.2c1.6,0,2.8-1.3,2.8-2.8"/>
	</g>
	<g id="LINE_5_">
		<line class="st2" x1="9.9" y1="2" x2="3.7" y2="8.2"/>
	</g>
	<g id="LINE_6_">
		<line class="st2" x1="35.5" y1="2" x2="41.7" y2="8.2"/>
	</g>
	<g id="LINE_7_">
		<line class="st2" x1="25.2" y1="11.3" x2="20.2" y2="17.6"/>
	</g>
	<g id="ARC_8_">
		<path class="st2" d="M20.2,11.3c-1.7-2.1-4.8-2.5-7-0.7s-2.5,4.8-0.7,7s4.8,2.5,7,0.7c0.3-0.2,0.5-0.5,0.7-0.7"/>
	</g>
	<g id="ARC_9_">
		<path class="st2" d="M25.2,17.6c1.7,2.1,4.8,2.5,7,0.7s2.5-4.8,0.7-7c-1.7-2.1-4.8-2.5-7-0.7c-0.3,0.2-0.5,0.5-0.7,0.7"/>
	</g>
	<g id="ARC_10_">
		<path class="st2" d="M11.9,1.1C19.1,2,26.3,2,33.5,1.1"/>
	</g>
	<g id="ARC_11_">
		<path class="st2" d="M11.2,28.5c7.6,1,15.4,1,23,0"/>
	</g>
</g>
</svg>
