<?xml version="1.0" encoding="utf-8"?>
<!-- Generator: Adobe Illustrator 19.0.0, SVG Export Plug-In . SVG Version: 6.00 Build 0)  -->
<svg version="1.1" id="Layer_1" xmlns="http://www.w3.org/2000/svg" xmlns:xlink="http://www.w3.org/1999/xlink" x="0px" y="0px"
	 viewBox="-289 381 32 32" style="enable-background:new -289 381 32 32;" xml:space="preserve">
<style type="text/css">
	.st0{display:none;}
	.st1{fill:none;stroke:#EFF1F5;stroke-miterlimit:10;}
	.st2{display:inline;fill:none;stroke:#231F20;stroke-miterlimit:10;}
</style>
<g id="Layer_1_1_" class="st0">
	
		<image style="display:inline;overflow:visible;enable-background:new    ;" width="32" height="32" id="XMLID_2_" xlink:href="EA3C9DD1.png"  transform="matrix(1 0 0 1 -1156 1524)">
	</image>
</g>
<g id="Layer_2">
	<path id="XMLID_5_" class="st1" d="M-265,384c-6,1.3-10.1,1.3-16.1,0c-0.6,0-2,0.5-2,1v15c0,0.5,1.4,2,2,2c6,1.3,10,1.3,16,0
		c0.5,0,2-1.5,2-2v-15C-263,384.5-264.5,384-265,384z"/>
	<path id="XMLID_7_" class="st1" d="M-283,385c0,0,0,0-3,3v19c0,1.6,1.3,3,3,3h20c1.6,0,3-1.4,3-3v-19l-3-3"/>
	<path id="XMLID_10_" class="st1" d="M-276.5,396"/>
	<path id="XMLID_8_" class="st1" d="M-273,392.5"/>
	<line id="XMLID_6_" class="st1" x1="-270.9" y1="392" x2="-266.9" y2="392"/>
	<line id="XMLID_9_" class="st1" x1="-268.9" y1="390" x2="-268.9" y2="394"/>
	<line id="XMLID_12_" class="st1" x1="-279" y1="392" x2="-275" y2="392"/>
	<path id="XMLID_16_" class="st1" d="M-277,395c-0.2,0-1.2,0-2-0.7c-1-0.8-1-2.1-1-2.3c0-0.4,0.1-1.4,0.8-2.1
		c0.8-0.8,1.9-0.9,2.2-0.9c3.3,0,4.6,6,8,6c0.2,0,1.3,0,2.1-0.8c0.9-0.8,0.9-2,0.9-2.2s0-1.3-0.8-2.1c-0.8-0.9-2-0.9-2.2-0.9
		C-272.3,389-273.6,395-277,395z"/>
</g>
<g id="Layer_3" class="st0">
	<path id="XMLID_3_" class="st2" d="M-1140,1540c0-1.7-2.3-3-4-3s-3,1.3-3,3s1.3,3,3,3S-1140,1541.7-1140,1540L-1140,1540
		c0-1.7,2.3-3,4-3s3,1.3,3,3s-1.3,3-3,3S-1140,1541.7-1140,1540L-1140,1540z"/>
</g>
</svg>
